<?xml version="1.0" standalone="no"?>
<!DOCTYPE svg PUBLIC "-//W3C//DTD SVG 20010904//EN"
 "http://www.w3.org/TR/2001/REC-SVG-20010904/DTD/svg10.dtd">
<svg version="1.0" xmlns="http://www.w3.org/2000/svg"
 width="130.000000pt" height="130.000000pt" viewBox="0 0 130.000000 130.000000"
 preserveAspectRatio="xMidYMid meet">
<metadata>
Created by potrace 1.11, written by Peter Selinger 2001-2013
</metadata>
<g transform="translate(0.000000,130.000000) scale(0.100000,-0.100000)"
fill="#000000" stroke="none">
<path d="M244 1269 c-13 -14 -25 -18 -42 -14 -19 5 -25 1 -35 -25 -6 -16 -15
-30 -19 -30 -4 0 -19 -16 -35 -36 -25 -34 -26 -37 -9 -49 10 -8 13 -16 7 -19
-6 -4 -20 -21 -32 -38 l-22 -31 36 5 37 4 -6 -63 -7 -63 29 0 c53 0 57 -8 44
-101 -13 -92 -9 -147 20 -257 35 -132 130 -214 264 -228 83 -9 94 -20 77 -82
-16 -63 -26 -72 -76 -72 -47 0 -109 -26 -99 -42 4 -5 22 -8 40 -6 24 3 34 0
34 -10 0 -15 24 -10 72 14 35 18 67 19 50 2 -20 -20 -14 -28 21 -28 l32 -1
-28 -20 c-68 -51 -2 -52 96 -2 39 21 87 40 106 43 38 6 55 30 21 30 -47 0 -60
17 -60 80 l0 59 53 34 c28 19 64 47 79 63 28 31 78 119 78 139 0 7 8 19 17 26
9 8 29 32 45 53 19 26 28 33 28 21 0 -15 2 -16 17 -4 22 19 53 88 53 122 0 15
4 27 9 27 11 0 21 -25 21 -51 0 -30 20 -22 27 11 4 22 9 28 18 20 15 -12 35
27 35 68 0 15 3 37 6 50 5 18 9 20 21 10 13 -10 14 -4 8 47 -10 73 -39 133
-72 146 -42 16 -110 10 -180 -16 -73 -28 -103 -52 -161 -128 -47 -62 -69 -73
-182 -92 -147 -26 -180 -7 -244 143 -25 56 -63 124 -85 150 -37 43 -39 50 -34
91 4 31 3 42 -5 37 -6 -3 -16 3 -22 14 -14 25 -22 25 -46 -1z m31 -119 c3 -11
11 -20 16 -20 5 0 9 -6 9 -13 0 -8 9 -22 20 -32 11 -10 17 -22 14 -27 -3 -5 4
-20 17 -34 12 -13 20 -26 17 -29 -3 -3 -17 8 -31 24 -13 16 -27 28 -30 25 -2
-3 2 -33 9 -67 7 -34 13 -104 14 -154 0 -55 4 -93 10 -93 6 0 10 8 11 18 0 9
7 -8 14 -38 18 -69 18 -71 0 -40 -18 32 -18 27 0 -61 9 -40 13 -74 10 -77 -3
-3 -5 -1 -5 4 0 5 -12 27 -26 49 l-25 40 5 -39 c9 -65 -13 -27 -26 45 -11 62
-12 63 -19 29 -9 -42 5 -113 31 -157 11 -18 15 -33 10 -33 -12 0 -27 29 -50
94 -16 45 -19 48 -19 21 -1 -17 7 -47 18 -68 10 -20 15 -34 10 -31 -41 25 -70
169 -62 310 5 98 8 112 30 134 19 19 24 32 20 57 -4 20 -1 36 8 43 20 17 23
51 7 84 -13 26 -17 28 -58 23 -24 -2 -44 -3 -44 -1 0 7 56 33 72 34 9 0 20 -9
23 -20z m-85 -56 c0 -8 -5 -12 -10 -9 -6 4 -8 11 -5 16 9 14 15 11 15 -7z
m-75 -34 c-3 -5 -11 -10 -16 -10 -6 0 -7 5 -4 10 3 6 11 10 16 10 6 0 7 -4 4
-10z m968 -27 c-29 -11 -10 -20 36 -15 27 2 56 0 65 -5 12 -6 -3 -9 -48 -10
-78 -1 -119 -15 -166 -58 -19 -18 -53 -45 -75 -60 -32 -23 -26 -14 30 44 68
71 124 110 155 110 10 0 11 -2 3 -6z m-903 -53 c-16 -31 -23 -19 -9 16 6 16
13 24 16 17 2 -7 -1 -22 -7 -33z m56 -28 c-18 -16 -18 -16 -6 6 6 13 14 21 18
18 3 -4 -2 -14 -12 -24z m889 18 c-3 -5 -16 -10 -28 -10 -30 -1 -98 -33 -120
-57 -17 -20 -17 -20 35 -26 55 -5 108 -24 108 -38 0 -4 -16 -1 -35 7 -19 7
-61 14 -94 14 -33 0 -62 4 -65 8 -7 12 84 79 130 96 46 17 78 20 69 6z m-730
-80 c9 -16 13 -30 11 -30 -3 0 -12 14 -21 30 -9 17 -13 30 -11 30 3 0 12 -13
21 -30z m789 -21 c23 -27 34 -59 21 -59 -2 0 -18 20 -35 45 -35 51 -25 61 14
14z m-644 -121 c0 -7 -12 2 -26 20 -14 17 -29 32 -34 32 -10 0 11 -96 28 -127
17 -32 15 -35 -12 -18 -15 10 -34 42 -50 86 -29 79 -29 79 -17 79 5 0 14 -12
20 -27 l11 -28 -4 30 c-3 17 -8 39 -11 50 -4 12 14 -2 44 -32 28 -28 51 -57
51 -65z m-93 -57 c13 -29 22 -55 19 -58 -6 -6 -85 146 -92 177 -7 32 39 -43
73 -119z m585 89 c25 -27 38 -50 38 -68 l0 -27 -18 27 c-9 14 -32 45 -50 67
-43 53 -21 53 30 1z m-63 -15 c30 -26 56 -84 48 -108 -2 -6 -13 6 -25 29 -11
22 -37 55 -57 72 -29 26 -32 32 -16 32 11 0 33 -11 50 -25z m-338 -3 c-16 -5
36 -62 58 -62 17 0 51 -29 51 -43 0 -6 -8 -3 -17 5 -10 9 -27 18 -39 22 -11 3
-38 24 -60 47 -21 22 -31 37 -21 34 10 -4 17 -2 17 5 0 6 5 8 12 4 9 -6 9 -9
-1 -12z m253 -14 c13 -13 28 -34 31 -48 7 -23 3 -21 -34 15 -22 21 -41 43 -41
47 0 15 19 8 44 -14z m-204 -102 c0 -18 -63 29 -85 64 -14 22 -25 41 -25 43 0
1 25 -20 55 -48 30 -29 55 -55 55 -59z m130 99 c17 -9 30 -20 30 -25 0 -5 -16
0 -35 11 -51 31 -47 41 5 14z m-54 -26 c19 -22 19 -22 -3 -10 -13 6 -23 16
-23 21 0 15 5 12 26 -11z m94 -99 c0 -6 -32 -9 -77 -9 -65 2 -71 3 -38 9 62
11 115 11 115 0z m15 -40 c-3 -6 -43 -9 -88 -9 -66 2 -74 3 -42 9 63 11 137
11 130 0z m-146 -46 c10 -9 -55 -3 -69 6 -10 6 -2 7 25 3 22 -3 42 -7 44 -9z
m163 4 c-7 -7 -42 -13 -80 -15 l-67 -2 75 13 c41 7 77 14 80 15 2 0 -1 -4 -8
-11z m-271 -50 c26 -16 64 -50 85 -76 37 -46 37 -45 -28 15 -37 34 -83 67
-102 74 -20 7 -36 16 -36 21 0 10 27 -1 81 -34z m-41 -13 c36 -19 39 -28 5
-15 -36 14 -85 40 -85 45 0 6 41 -10 80 -30z m261 6 c-7 -5 -10 -14 -7 -20 9
-14 0 -14 -27 0 -21 11 -20 10 3 -17 l25 -28 -27 17 c-43 27 -54 20 -22 -15
l29 -32 -35 25 c-69 50 -76 47 -26 -10 l21 -24 -23 12 c-13 7 -32 27 -42 44
l-20 32 73 11 c39 6 77 12 82 12 6 1 4 -2 -4 -7z m-475 -73 l29 -33 -32 29
c-31 28 -38 36 -30 36 2 0 16 -15 33 -32z m134 12 c14 -11 30 -20 37 -20 6 0
15 -5 18 -11 9 -14 -66 18 -85 36 -21 22 1 18 30 -5z m188 -37 c41 -55 36 -69
-5 -16 -38 48 -46 63 -36 62 4 0 23 -21 41 -46z m-210 12 c20 -14 45 -25 56
-25 11 0 17 -3 13 -6 -11 -11 -62 6 -92 31 -39 32 -24 32 23 0z m183 -28 c55
-69 50 -80 -5 -12 -21 25 -34 45 -29 45 4 0 20 -15 34 -33z m13 -89 c20 -28
21 -97 3 -104 -8 -3 -26 0 -41 6 -26 9 -28 13 -21 47 8 44 22 73 35 73 5 0 16
-10 24 -22z m63 -65 c-3 -10 -5 -4 -5 12 0 17 2 24 5 18 2 -7 2 -21 0 -30z
m-7 -48 c0 -8 -14 -29 -31 -47 l-31 -33 26 33 c14 19 26 40 26 48 0 8 2 14 5
14 3 0 5 -7 5 -15z"/>
<path d="M298 920 c2 -22 6 -40 8 -40 2 0 4 18 4 40 0 22 -3 40 -8 40 -4 0 -6
-18 -4 -40z"/>
<path d="M264 876 c-3 -8 -4 -31 -2 -52 3 -36 4 -35 8 14 5 53 4 63 -6 38z"/>
<path d="M295 820 c-9 -29 2 -99 21 -130 15 -25 15 -25 8 9 -3 19 -8 56 -9 83
-3 56 -10 69 -20 38z"/>
<path d="M230 757 c0 -25 5 -49 11 -52 7 -5 8 8 3 41 -9 64 -14 68 -14 11z"/>
</g>
</svg>
