<?xml version="1.0" standalone="no"?>
<!DOCTYPE svg PUBLIC "-//W3C//DTD SVG 20010904//EN"
 "http://www.w3.org/TR/2001/REC-SVG-20010904/DTD/svg10.dtd">
<svg version="1.0" xmlns="http://www.w3.org/2000/svg"
 width="270.000000pt" height="270.000000pt" viewBox="0 0 270.000000 270.000000"
 preserveAspectRatio="xMidYMid meet">
<metadata>
Created by potrace 1.11, written by Peter Selinger 2001-2013
</metadata>
<g transform="translate(0.000000,270.000000) scale(0.100000,-0.100000)"
fill="#000000" stroke="none">
<path d="M516 2636 c-45 -46 -70 -55 -106 -36 -15 8 -23 5 -39 -15 -11 -14
-23 -40 -26 -56 -5 -21 -21 -41 -51 -62 -24 -17 -47 -40 -50 -51 -3 -12 -17
-33 -31 -48 -30 -32 -22 -52 17 -43 47 10 43 -10 -15 -77 -90 -102 -90 -102
-7 -94 45 5 72 3 77 -3 3 -6 -3 -42 -15 -79 -22 -77 -26 -133 -9 -164 9 -16
17 -19 44 -14 21 4 48 0 75 -10 l42 -17 -5 -71 c-3 -39 -11 -114 -17 -166 -14
-112 -7 -285 16 -368 9 -31 20 -73 26 -92 5 -19 12 -46 14 -60 13 -67 31 -109
67 -155 65 -85 170 -187 207 -202 19 -8 58 -25 85 -38 28 -13 79 -26 115 -29
192 -16 217 -25 238 -85 12 -35 -34 -190 -68 -226 -22 -23 -30 -25 -109 -25
-70 0 -91 -4 -111 -20 -14 -11 -34 -20 -46 -20 -11 0 -29 -7 -40 -15 -33 -25
0 -37 84 -31 l74 6 -7 -30 -7 -30 84 36 c89 38 163 64 185 64 23 0 14 -36 -12
-48 -15 -7 -25 -20 -25 -32 0 -16 7 -20 34 -20 19 0 47 5 62 10 29 11 48 2 36
-16 -4 -6 -33 -29 -65 -53 -32 -23 -55 -46 -52 -52 14 -21 106 -9 163 21 31
16 81 41 110 54 29 14 71 40 93 58 36 29 49 33 115 36 90 5 94 21 9 38 -46 9
-66 19 -89 45 -28 32 -29 33 -23 123 8 125 18 150 74 176 53 25 167 110 206
154 68 76 133 186 157 266 9 29 35 68 75 111 33 36 67 79 75 95 33 66 60 78
60 27 0 -26 0 -26 20 -8 45 41 110 188 110 250 0 40 10 75 21 75 17 0 48 -63
54 -112 6 -39 10 -47 20 -38 8 7 19 36 26 66 13 58 22 65 41 34 16 -25 24 -25
31 -2 4 9 13 35 21 57 9 22 16 58 16 80 0 22 3 64 6 93 6 42 10 52 25 52 11 0
19 -4 19 -10 0 -5 7 -10 16 -10 10 0 14 6 10 18 -3 9 -8 59 -12 111 -6 84 -10
97 -35 126 -16 18 -29 43 -29 56 -1 56 -43 78 -162 85 -110 7 -174 -3 -286
-44 -149 -56 -173 -74 -279 -206 -157 -196 -179 -210 -388 -246 -38 -6 -94
-16 -124 -21 -139 -23 -211 -4 -306 83 -50 45 -57 58 -125 229 -80 198 -116
260 -211 359 -60 63 -61 65 -49 95 7 16 15 52 18 79 3 41 2 48 -11 43 -15 -6
-47 21 -47 40 0 5 -9 18 -19 27 -19 17 -21 16 -65 -28z m-13 -62 c6 -6 -51
-63 -172 -174 -24 -22 -37 -28 -45 -20 -7 7 -1 19 24 40 19 17 38 30 42 30 5
0 21 19 38 42 17 22 45 51 63 64 35 25 41 27 50 18z m64 -164 c3 -11 12 -20
20 -20 10 0 12 -6 8 -19 -4 -15 0 -20 17 -23 16 -2 22 -9 20 -21 -2 -12 4 -21
18 -24 13 -4 19 -11 15 -22 -3 -10 8 -26 30 -44 19 -15 35 -34 35 -42 0 -18
-12 -19 -28 -3 -29 29 -8 -8 33 -59 78 -96 51 -118 -32 -26 -28 32 -54 55 -57
52 -4 -3 5 -59 19 -124 21 -102 25 -145 25 -300 0 -99 4 -187 10 -195 8 -13
10 -13 14 0 3 8 6 24 8 34 7 45 25 23 37 -46 7 -40 19 -98 27 -128 17 -65 17
-70 4 -70 -6 0 -15 12 -21 28 -23 56 -20 -3 6 -134 35 -177 27 -188 -40 -57
-36 70 -79 125 -61 78 13 -35 20 -125 9 -125 -26 0 -57 81 -77 200 -11 68 -13
72 -19 41 -14 -66 0 -171 32 -246 17 -40 48 -101 65 -127 25 -38 1 -47 -34
-13 -34 33 -71 107 -95 190 -25 88 -28 94 -33 66 -2 -13 2 -45 8 -70 18 -67
97 -209 128 -229 41 -27 146 -131 139 -138 -15 -16 -59 11 -103 63 -27 31 -70
80 -95 109 -79 88 -98 128 -138 304 -33 146 -34 155 -22 382 l13 223 44 45
c50 52 63 94 44 150 -12 38 -12 40 18 65 69 58 44 207 -37 228 -27 6 -50 3
-99 -13 -35 -12 -67 -19 -70 -15 -8 8 39 49 88 75 19 11 55 19 78 20 36 0 45
-4 49 -20z m-91 -105 c20 -31 14 -50 -25 -70 -21 -11 -36 -12 -48 -6 -10 5
-26 12 -35 15 -26 8 -22 34 10 61 36 32 77 32 98 0z m-145 -89 c0 -12 -75 -36
-113 -36 -29 0 -37 17 -17 37 13 13 129 12 130 -1z m1989 -44 c0 -4 -19 -16
-42 -27 l-43 -20 115 -6 c122 -5 155 -13 164 -35 8 -20 -3 -22 -69 -13 -70 11
-190 3 -257 -16 -83 -24 -121 -47 -198 -121 -98 -95 -212 -175 -228 -160 -5 6
50 66 243 261 59 60 112 92 210 126 53 19 105 24 105 11z m-1926 -48 c13 -33
5 -67 -24 -110 -51 -74 -75 -54 -34 28 8 15 14 40 14 56 0 16 3 32 7 35 11 12
31 7 37 -9z m126 -100 c0 -26 -8 -43 -29 -65 -26 -26 -51 -38 -51 -24 0 3 9
22 20 42 11 21 20 48 20 60 0 16 6 23 20 23 16 0 20 -7 20 -36z m1864 10 c9
-3 16 -12 16 -19 0 -9 -22 -16 -67 -20 -95 -10 -180 -41 -259 -94 -94 -64 -93
-71 6 -71 121 0 230 -38 264 -92 17 -29 -1 -32 -46 -8 -66 35 -102 42 -248 49
-125 6 -135 7 -138 26 -2 15 19 38 83 89 94 74 112 85 207 120 61 23 149 33
182 20z m-1574 -143 c47 -67 65 -154 25 -121 -20 17 -76 131 -69 142 9 15 22
8 44 -21z m1638 -58 c24 -27 51 -61 59 -76 16 -32 14 -78 -4 -85 -13 -4 -133
172 -133 195 0 27 35 11 78 -34z m-1435 -129 c101 -106 111 -118 122 -152 13
-43 -25 -21 -75 43 -26 33 -51 58 -55 55 -16 -9 -4 -72 32 -175 47 -136 49
-145 29 -145 -36 0 -93 69 -126 153 -18 45 -36 91 -40 102 -31 75 -42 117 -33
126 22 22 52 -11 76 -81 4 -10 6 -7 6 7 1 12 -3 25 -9 28 -5 3 -10 17 -10 30
0 13 -4 27 -10 30 -10 6 -14 75 -5 75 3 0 47 -43 98 -96z m-215 11 c7 -14 12
-32 12 -39 0 -7 14 -32 31 -55 17 -24 43 -71 59 -104 87 -192 90 -200 71 -212
-15 -9 -48 41 -107 164 -30 64 -61 123 -69 131 -20 24 -38 89 -31 116 8 31 20
31 34 -1z m1270 -19 c35 -18 125 -113 145 -153 25 -48 32 -107 14 -121 -13
-11 -19 -5 -41 43 -16 35 -55 86 -106 140 -45 47 -78 89 -75 95 9 14 31 13 63
-4z m-77 -81 c43 -28 97 -97 116 -148 6 -18 12 -53 12 -79 1 -76 -24 -74 -53
5 -24 65 -97 161 -151 199 -25 18 -45 38 -45 46 0 23 74 9 121 -23z m-751 -10
c31 -18 41 -18 38 -3 -4 15 41 23 54 10 6 -6 7 -20 3 -31 -5 -17 -12 -20 -28
-15 -13 4 -2 -12 32 -45 39 -38 60 -51 82 -51 35 0 119 -72 119 -101 0 -25
-15 -24 -53 5 -18 13 -51 32 -74 43 -40 18 -213 176 -213 194 0 12 11 11 40
-6z m25 -107 c17 -18 55 -51 85 -73 59 -43 70 -53 70 -73 0 -22 -31 -26 -64
-7 -34 19 -116 95 -116 107 0 4 -18 35 -40 69 -45 70 -43 100 4 47 17 -19 45
-51 61 -70z m584 55 c78 -76 95 -188 19 -117 -129 119 -139 130 -132 147 12
33 60 21 113 -30z m-163 6 c47 -23 81 -60 69 -79 -10 -16 -29 -12 -53 10 -12
12 -42 29 -67 40 -50 21 -61 50 -20 50 14 0 46 -10 71 -21z m-117 -53 c18 -19
31 -41 29 -50 -2 -13 -10 -11 -45 12 -40 25 -53 49 -36 65 11 12 18 8 52 -27z
m208 -212 c3 -8 1 -20 -6 -27 -15 -15 -299 -15 -326 0 -16 10 -17 13 -5 17 40
14 125 24 223 25 89 1 109 -2 114 -15z m31 -88 c-3 -20 -11 -21 -158 -29 -150
-8 -220 -1 -206 21 5 9 185 31 281 35 72 3 87 -2 83 -27z m-418 -69 c14 -5 88
-12 165 -14 127 -5 167 -1 278 23 45 10 33 -21 -18 -45 -67 -31 -159 -36 -319
-16 -135 17 -195 36 -204 64 -5 14 51 7 98 -12z m-142 -103 c45 -30 89 -54 97
-54 7 0 24 -15 36 -32 13 -18 57 -68 97 -111 73 -77 83 -95 44 -83 -21 7 -44
28 -131 120 -65 68 -142 123 -233 164 -69 31 -89 49 -68 62 20 12 67 -8 158
-66z m-163 6 c17 -9 60 -28 97 -44 67 -28 91 -52 63 -62 -8 -4 -34 3 -58 14
-23 10 -59 25 -80 33 -48 17 -103 62 -93 77 7 12 23 8 71 -18z m670 -41 c9
-27 1 -33 -24 -19 -28 15 -29 -10 -1 -35 42 -38 8 -49 -42 -14 -42 30 -44 18
-3 -20 65 -59 38 -70 -42 -16 -29 19 -55 35 -58 35 -16 0 0 -25 42 -65 79 -76
31 -74 -64 2 -32 26 -65 51 -73 57 -24 18 32 -56 72 -95 35 -34 48 -59 31 -59
-13 0 -73 39 -97 63 -37 37 -95 128 -90 142 3 8 41 14 107 19 56 3 116 10 132
15 17 5 47 10 67 10 29 1 38 -3 43 -20z m-700 -59 c16 -17 16 -20 2 -26 -18
-7 -69 24 -61 37 9 16 40 10 59 -11z m-36 -59 c34 -21 73 -42 88 -46 51 -13
72 -45 29 -45 -12 0 -38 5 -57 12 -47 15 -159 90 -159 106 0 23 39 12 99 -27z
m363 -45 c23 -33 57 -77 75 -96 58 -62 30 -87 -29 -27 -53 52 -130 167 -124
182 9 25 35 5 78 -59z m-453 20 c57 -42 144 -86 169 -86 28 0 59 -26 46 -40
-14 -14 -112 11 -168 44 -47 28 -116 91 -116 106 0 18 22 11 69 -24z m400 -53
c17 -21 53 -66 81 -99 27 -34 50 -67 50 -73 0 -23 -27 -9 -66 37 -23 26 -65
73 -93 105 -28 31 -51 59 -51 62 0 3 11 5 24 5 17 0 35 -13 55 -37z m51 -209
c17 -20 36 -47 41 -61 12 -33 11 -127 -2 -157 -14 -30 -68 -44 -85 -22 -5 8
-28 16 -50 18 -38 3 -39 4 -42 43 -5 58 17 128 65 208 10 17 43 4 73 -29z
m-150 -51 c0 -33 -38 -118 -54 -121 -17 -4 -23 27 -8 44 5 5 15 28 22 52 13
42 40 58 40 25z m296 -69 c0 -27 -5 -59 -12 -70 -9 -14 -9 -25 -3 -31 7 -7 7
-17 1 -29 -6 -11 -17 -35 -26 -54 -26 -61 -126 -139 -126 -100 0 6 15 24 33
40 30 26 56 69 86 143 6 15 11 54 11 86 0 32 3 61 7 65 16 16 28 -4 29 -50z
m-228 -212 c2 -7 -6 -12 -17 -12 -21 0 -27 11 -14 24 9 9 26 2 31 -12z"/>
<path d="M625 1958 c-2 -7 0 -29 4 -48 l9 -35 1 48 c1 45 -5 60 -14 35z"/>
<path d="M546 1794 c-3 -9 -2 -23 4 -32 7 -14 9 -10 10 16 0 35 -5 41 -14 16z"/>
<path d="M621 1690 c-11 -38 -11 -58 3 -134 9 -50 24 -102 37 -120 19 -28 20
-28 14 -6 -17 64 -28 132 -34 215 l-7 90 -13 -45z"/>
<path d="M481 1575 c0 -22 4 -47 9 -55 13 -19 13 46 0 75 -7 16 -9 11 -9 -20z"/>
<path d="M400 2274 c0 -25 1 -26 22 -12 32 22 34 38 4 38 -21 0 -26 -5 -26
-26z"/>
</g>
</svg>
